# xmcd
#
# Track frame offsets:
#	150
#	9812
#	20971
#	33596
#	47623
#	61617
#	72083
#	82702
#	93475
#	101103
#	114206
#	125923
#	135321
#	144340
#	155000
#	164965
#
# Disc length: 2335 seconds
#
# Revision: 0
# Processed by: cddbd v1.5.2PL0 Copyright (c) Steve Scherf et al.
# Submitted via: EasyCDDAExtractor 12.0.4.1
#
DISCID=d0091d10
DTITLE=Jeanne D'Arc Charlebois - Les grands folkloristes quebecois (Jeanne D'A
DTITLE=rc Charlebois)
DYEAR=2006
DGENRE=Folklore vocal
TTITLE0=Y va le faire mourir ce gars-la
TTITLE1=Ca va v'nir, decouragez-vous pas
TTITLE2=La danse en soulier d'beu
TTITLE3=Les cinq jumelles
TTITLE4=La gaspesienne pure laine
TTITLE5=La lune de miel
TTITLE6=Le petit sauvage du Nord
TTITLE7=Arthimise marie le bedeau
TTITLE8=La cuisiniere
TTITLE9=Chez ma tante Gervais
TTITLE10=Les filles de campagne
TTITLE11=Les pompiers de St-Eloi
TTITLE12=Les braves habitants
TTITLE13=Regardez donc mouman
TTITLE14=La grippe
TTITLE15=Finfin Bigaouette
EXTD=
EXTT0=
EXTT1=
EXTT2=
EXTT3=
EXTT4=
EXTT5=
EXTT6=
EXTT7=
EXTT8=
EXTT9=
EXTT10=
EXTT11=
EXTT12=
EXTT13=
EXTT14=
EXTT15=
PLAYORDER=
